<?xml version="1.0" encoding="UTF-8" standalone="no"?>
<!-- Created with Inkscape (http://www.inkscape.org/) -->

<svg
   width="280"
   height="50"
   viewBox="0 0 280 50"
   version="1.1"
   id="svg7713"
   xml:space="preserve"
   inkscape:export-filename="hr.svg"
   inkscape:export-xdpi="96"
   inkscape:export-ydpi="96"
   xmlns:inkscape="http://www.inkscape.org/namespaces/inkscape"
   xmlns:sodipodi="http://sodipodi.sourceforge.net/DTD/sodipodi-0.dtd"
   xmlns="http://www.w3.org/2000/svg"
   xmlns:svg="http://www.w3.org/2000/svg"><sodipodi:namedview
     id="namedview7715"
     pagecolor="#ffffff"
     bordercolor="#000000"
     borderopacity="0.25"
     inkscape:showpageshadow="2"
     inkscape:pageopacity="0.0"
     inkscape:pagecheckerboard="0"
     inkscape:deskcolor="#d1d1d1"
     inkscape:document-units="mm"
     showgrid="false" /><defs
     id="defs7710" /><g
     inkscape:label="Layer 1"
     inkscape:groupmode="layer"
     id="layer1"><rect
       style="fill:#39424e;fill-opacity:1;stroke-width:0.264567"
       id="rect7717"
       width="280"
       height="50"
       x="0"
       y="0"
       ry="10"
       rx="4.6931896" /><g
       id="g10031"
       transform="matrix(0.10043204,0,0,0.10414996,44.905923,14.246517)"><path
         fill="#ffffff"
         d="M 145.3,0 H 101 C 99.3,0 97.9,1.4 97.9,3.1 V 75.6 H 50.5 V 3.1 C 50.5,1.4 49.1,0 47.4,0 H 3.1 C 1.4,0 0,1.4 0,3.1 v 196.6 c 0,1.7 1.4,3.1 3.1,3.1 h 44.2 c 1.7,0 3.1,-1.4 3.1,-3.1 v -78.9 h 47.4 v 78.9 c 0,1.7 1.4,3.1 3.1,3.1 h 44.4 c 1.7,0 3.1,-1.4 3.1,-3.1 V 3.1 C 148.4,1.4 147,0 145.3,0 Z m 107.2,43.4 c -13.1,0 -25.9,2 -37.9,5.9 -11.9,3.9 -23.2,8.8 -33.6,14.7 -1.5,0.8 -2,2.7 -1.2,4.2 l 15.7,28.9 c 0.8,1.5 2.7,2.1 4.2,1.3 8.2,-4.1 16.1,-7.5 23.3,-9.9 7,-2.4 14,-3.6 20.8,-3.6 9.5,0 16.6,1.7 21.2,5.1 3.6,2.7 5.9,6.1 7,10.5 -16.3,1.1 -30.5,2.9 -42.2,5.4 -12.7,2.8 -23.3,6.5 -31.5,11 -8.4,4.7 -14.6,10.5 -18.5,17.3 -3.9,6.8 -5.8,14.8 -5.8,23.7 0,6.8 1.3,13.2 3.7,19 2.5,5.8 6,10.9 10.5,15.3 4.5,4.4 10,7.9 16.5,10.3 6.4,2.4 13.6,3.7 21.6,3.7 10,0 19.9,-2.1 29.3,-6.1 8.1,-3.5 15.7,-7.8 22.7,-12.8 l 2.5,12.8 c 0.3,1.5 1.6,2.5 3.1,2.5 h 36.2 c 1.7,0 3.1,-1.4 3.1,-3.1 v -85.6 c 0,-23.7 -6.4,-41.6 -19.1,-53.3 -12.7,-11.4 -30,-17.2 -51.6,-17.2 z m 20.1,109.8 c -4.7,3.5 -9.6,6.4 -14.8,8.8 -5.4,2.5 -11.2,3.8 -17.4,3.8 -5.8,0 -10.4,-1 -13.6,-3 -2.8,-1.7 -4.1,-4.3 -4.1,-8 0,-2.6 0.7,-5.1 2.1,-7.4 1.4,-2.3 4,-4.4 7.6,-6.2 4,-2 9.5,-3.7 16.4,-5 6.4,-1.2 14.3,-2.2 23.7,-2.8 z m 210.5,-1.6 c -0.5,-0.7 -1.2,-1.2 -2.1,-1.4 -0.8,-0.2 -1.7,0 -2.4,0.5 -5,3.7 -10.8,6.9 -17.2,9.6 -6.2,2.6 -13.1,4 -20.5,4 -11.7,0 -20.9,-3.5 -28.1,-10.5 -7.2,-7.1 -10.7,-16.5 -10.7,-28.8 0,-12.3 3.6,-21.7 11.1,-28.8 7.4,-7 17.2,-10.6 29.2,-10.6 10.3,0 20.9,3.8 31.3,11.2 1.4,1 3.3,0.7 4.3,-0.7 l 20.5,-27.4 c 1,-1.3 0.8,-3.1 -0.4,-4.2 -6.7,-6 -15.1,-11.1 -24.9,-15.1 -19.4,-7.8 -45.3,-7.9 -67.1,-0.5 -10.8,3.6 -20.4,8.9 -28.6,15.8 -8.2,6.9 -14.9,15.5 -19.8,25.6 -4.9,10.1 -7.4,21.8 -7.4,34.7 0,12.8 2.2,24.5 6.6,34.6 4.4,10.1 10.6,18.8 18.4,25.7 7.8,6.9 17,12.2 27.4,15.8 10.3,3.6 21.7,5.5 33.9,5.5 10.5,0 21.5,-1.8 32.8,-5.4 11.3,-3.6 21.7,-9.5 31.1,-17.3 1.2,-1 1.5,-2.8 0.6,-4.1 z m 142.3,-39.7 55,-59.6 c 0.8,-0.9 1.1,-2.2 0.6,-3.4 -0.5,-1.1 -1.6,-1.9 -2.9,-1.9 h -48.5 c -0.9,0 -1.7,0.4 -2.3,1 l -50.6,54.2 V 3 c 0,-1.7 -1.4,-3.1 -3.1,-3.1 h -44.3 c -1.7,0 -3.1,1.4 -3.1,3.1 v 196.6 c 0,1.7 1.4,3.1 3.1,3.1 h 44.3 c 1.7,0 3.1,-1.4 3.1,-3.1 v -35.8 l 18.6,-18.1 36.8,55.6 c 0.6,0.9 1.6,1.4 2.6,1.4 h 47.9 c 1.2,0 2.2,-0.7 2.8,-1.7 0.5,-1 0.5,-2.3 -0.2,-3.2 z m 198.1,-47 C 817.4,58.1 809.6,52.8 800.4,49 c -9.2,-3.8 -19.8,-5.7 -31.6,-5.7 -10.4,0 -20.6,1.9 -30.2,5.6 -9.7,3.7 -18.4,9.2 -25.9,16.2 -7.5,7 -13.6,15.6 -18.1,25.6 -4.5,10 -6.8,21.5 -6.8,34.1 0,12.9 2.3,24.4 6.8,34.4 4.5,10 10.7,18.6 18.4,25.6 7.7,7 16.9,12.4 27.3,16 10.3,3.6 21.6,5.5 33.6,5.5 10.3,0 21,-1.6 31.6,-4.8 10.7,-3.2 20.5,-7.6 29.1,-13.2 1.4,-0.9 1.8,-2.7 1.1,-4.1 l -14.4,-26.4 c -0.8,-1.5 -2.7,-2.1 -4.2,-1.3 -6.4,3.3 -12.7,5.8 -18.6,7.5 -5.8,1.6 -12.1,2.4 -18.6,2.4 -10.4,0 -19.3,-2.4 -26.6,-7.2 -6.3,-4.1 -10.5,-10.4 -12.9,-19.1 h 96.8 c 1.5,0 2.7,-1 3.1,-2.5 0.4,-1.9 0.8,-4.5 1.3,-8 0.4,-3.4 0.6,-7.3 0.6,-11.4 0,-10.5 -1.6,-20.5 -4.7,-29.5 -3.2,-9 -7.9,-17.1 -14,-23.8 z m -83.7,41.5 c 1.9,-7.3 5.3,-12.9 10.2,-16.5 5.8,-4.3 12.3,-6.5 19.7,-6.5 9.2,0 15.9,2.4 19.9,7 3.5,4.2 5.6,9.5 6.1,15.9 h -55.9 z m 271.4,-56.7 c -4.6,-2.1 -9.1,-3.7 -13.4,-4.7 -4.3,-1.1 -10,-1.6 -16.9,-1.6 -12.5,0 -24.4,3.1 -35.3,9.3 -9,5.1 -17,12.6 -23.9,22.2 L 918.9,49.8 C 918.7,48.2 917.4,47 915.8,47 h -36.2 c -1.7,0 -3.1,1.4 -3.1,3.1 v 149.5 c 0,1.7 1.4,3.1 3.1,3.1 h 44.3 c 1.7,0 3.1,-1.4 3.1,-3.1 v -77.1 c 6.1,-12.5 13.3,-21.4 21.5,-26.4 8.4,-5.1 17,-7.7 25.7,-7.7 5.4,0 9.9,0.3 13.4,1 3.6,0.7 7.7,1.7 12.2,3.1 0.8,0.3 1.7,0.1 2.5,-0.3 0.7,-0.4 1.3,-1.1 1.5,-2 l 9,-37.1 c 0.5,-1.3 -0.2,-2.8 -1.6,-3.4 z m 140.7,72.7 c 9.5,-4.8 17.4,-11.7 23.5,-20.6 6.8,-9.8 10.2,-22.4 10.2,-37.5 0,-12.1 -2.1,-22.4 -6.4,-30.7 -4.3,-8.3 -10.1,-15 -17.5,-20 -7.2,-4.9 -15.7,-8.5 -25.2,-10.6 -9.3,-2 -19.4,-3.1 -30.1,-3.1 h -69.6 c -1.7,0 -3.1,1.4 -3.1,3.1 v 196.6 c 0,1.7 1.4,3.1 3.1,3.1 h 44.3 c 1.7,0 3.1,-1.4 3.1,-3.1 v -67.7 h 18.2 l 36.8,69.2 c 0.5,1 1.6,1.7 2.8,1.7 h 49.7 c 1.1,0 2.1,-0.6 2.7,-1.6 0.6,-1 0.6,-2.2 0,-3.1 z m -49,-32 h -18.6 V 41.5 h 18.6 c 11.2,0 19.7,1.8 25.1,5.2 5.1,3.2 7.6,9 7.6,17.5 0,17.9 -10.4,26.2 -32.7,26.2 z m 179.2,-47 c -13.1,0 -25.9,2 -37.9,5.9 -11.9,3.9 -23.2,8.8 -33.6,14.7 -1.5,0.8 -2,2.7 -1.2,4.2 l 15.7,28.9 c 0.8,1.5 2.7,2.1 4.2,1.3 8.2,-4.1 16.1,-7.5 23.3,-9.9 7,-2.4 14,-3.6 20.8,-3.6 9.5,0 16.6,1.7 21.2,5.1 3.6,2.7 5.9,6.1 7,10.5 -16.3,1.1 -30.5,2.9 -42.2,5.4 -12.7,2.8 -23.3,6.5 -31.5,11 -8.4,4.7 -14.6,10.5 -18.5,17.3 -3.9,6.8 -5.8,14.8 -5.8,23.7 0,6.8 1.3,13.2 3.7,19 2.5,5.8 6,10.9 10.5,15.3 4.5,4.4 10,7.9 16.5,10.3 6.4,2.4 13.6,3.7 21.6,3.7 10,0 19.9,-2.1 29.3,-6.1 8.1,-3.5 15.7,-7.8 22.7,-12.8 l 2.5,12.8 c 0.3,1.5 1.6,2.5 3.1,2.5 h 36.2 c 1.7,0 3.1,-1.4 3.1,-3.1 v -85.6 c 0,-23.7 -6.4,-41.6 -19.1,-53.3 -12.6,-11.4 -29.9,-17.2 -51.6,-17.2 z m 20.1,109.8 c -4.7,3.5 -9.6,6.4 -14.8,8.8 -5.4,2.5 -11.2,3.8 -17.4,3.8 -5.8,0 -10.4,-1 -13.6,-3 -2.8,-1.7 -4.1,-4.3 -4.1,-8 0,-2.6 0.7,-5.1 2.1,-7.4 1.4,-2.3 4,-4.4 7.6,-6.2 4,-2 9.5,-3.7 16.4,-5 6.4,-1.2 14.3,-2.2 23.7,-2.8 v 19.8 z M 1480.7,43.4 c -11.7,0 -22.1,2.5 -30.9,7.3 -7.2,4 -13.7,8.7 -19.6,14 l -2.5,-15 c -0.3,-1.5 -1.6,-2.6 -3.1,-2.6 h -36.2 c -1.7,0 -3.1,1.4 -3.1,3.1 v 149.5 c 0,1.7 1.4,3.1 3.1,3.1 h 44.3 c 1.7,0 3.1,-1.4 3.1,-3.1 v -98.5 c 4.7,-4.6 9,-8 13.1,-10.4 4,-2.3 8.8,-3.5 14.3,-3.5 7.1,0 12,1.9 14.6,5.6 2.8,4.1 4.3,10.9 4.3,20.2 v 86.5 c 0,1.7 1.4,3.1 3.1,3.1 h 44.3 c 1.7,0 3.1,-1.4 3.1,-3.1 v -92.2 c 0,-19.5 -4.2,-35.1 -12.4,-46.5 -8.2,-11.6 -21.6,-17.5 -39.5,-17.5 z m 243.8,154.5 -59.8,-86 55,-59.6 c 0.8,-0.9 1.1,-2.2 0.6,-3.4 -0.5,-1.1 -1.6,-1.9 -2.9,-1.9 h -48.5 c -0.9,0 -1.7,0.4 -2.3,1 L 1616,102.2 V 3 c 0,-1.7 -1.4,-3.1 -3.1,-3.1 h -44.3 c -1.7,0 -3.1,1.4 -3.1,3.1 v 196.6 c 0,1.7 1.4,3.1 3.1,3.1 h 44.3 c 1.7,0 3.1,-1.4 3.1,-3.1 v -35.8 l 18.6,-18.1 36.7,55.7 c 0.6,0.9 1.6,1.4 2.6,1.4 h 47.9 c 1.2,0 2.2,-0.7 2.8,-1.7 0.6,-1 0.5,-2.3 -0.1,-3.2 z"
         id="path10019" /><path
         fill="#2ec866"
         d="m 1890.6,202.8 c 1.7,0 3.1,-1.4 3.1,-3.1 V 3.1 c 0,-1.7 -1.4,-3.1 -3.1,-3.1 h -142.3 c -1.7,0 -3.1,1.4 -3.1,3.1 v 196.6 c 0,1.7 1.4,3.1 3.1,3.1 z"
         id="path10021" /></g></g></svg>
