<?xml version="1.0" encoding="UTF-8" standalone="no"?>
<!-- Created with Inkscape (http://www.inkscape.org/) -->

<svg
   width="280"
   height="50"
   viewBox="0 0 280 50"
   version="1.1"
   id="svg7713"
   xml:space="preserve"
   inkscape:export-filename="lc.svg"
   inkscape:export-xdpi="96"
   inkscape:export-ydpi="96"
   xmlns:inkscape="http://www.inkscape.org/namespaces/inkscape"
   xmlns:sodipodi="http://sodipodi.sourceforge.net/DTD/sodipodi-0.dtd"
   xmlns="http://www.w3.org/2000/svg"
   xmlns:svg="http://www.w3.org/2000/svg"><sodipodi:namedview
     id="namedview7715"
     pagecolor="#ffffff"
     bordercolor="#000000"
     borderopacity="0.25"
     inkscape:showpageshadow="2"
     inkscape:pageopacity="0.0"
     inkscape:pagecheckerboard="0"
     inkscape:deskcolor="#d1d1d1"
     inkscape:document-units="mm"
     showgrid="false" /><defs
     id="defs7710" /><g
     inkscape:label="Layer 1"
     inkscape:groupmode="layer"
     id="layer1"><rect
       style="fill:#1a2332;fill-opacity:1;stroke-width:0.264567"
       id="rect7717"
       width="280"
       height="50"
       x="0"
       y="0"
       ry="10"
       rx="4.6931896" /><g
       id="g11428"
       transform="translate(52.468087,8.6)"><path
         class="st0"
         d="m 28.5,9.3 c 0,0 0,0 0,0 0,-0.3 -0.1,-0.6 -0.3,-0.8 0,0 0,0 0,0 0,0 0,0 -0.1,-0.1 0,0 -0.1,0 -0.1,-0.1 0,0 0,0 0,0 L 15.5,1.2 c 0,0 -0.1,0 -0.1,0 C 15.3,1 15.1,1 14.9,1 14.8,1 14.7,1 14.6,1.1 14.5,1.1 14.5,1.2 14.4,1.2 L 2,8.3 c 0,0 0,0 0,0 0,0 0,0 0,0 0,0 0,0 0,0 -0.2,0.1 -0.3,0.2 -0.3,0.2 0,0 0,0 0,0 C 1.5,8.7 1.4,9 1.4,9.3 c 0,0 0,0 0,0 0,0 0,0 0,0 v 14.3 c 0,0.4 0.2,0.8 0.6,1 l 12.4,7.1 c 0,0 0,0 0.1,0 0,0 0,0 0,0 0.1,0 0.1,0.1 0.2,0.1 0,0 0,0 0,0 0.1,0 0.2,0 0.2,0 0.1,0 0.2,0 0.2,0 0,0 0,0 0,0 0.1,0 0.1,0 0.2,-0.1 0,0 0,0 0,0 0,0 0,0 0.1,0 l 12.4,-7.1 c 0.4,-0.2 0.6,-0.6 0.6,-1 L 28.5,9.3 c 0,0 0,0 0,0 z M 6.3,8.8 14.7,4 c 0.2,-0.1 0.4,-0.1 0.5,0 l 8.4,4.9 C 24,9 24,9.6 23.6,9.8 l -8.4,4.9 c -0.2,0.1 -0.4,0.1 -0.5,0 L 6.3,9.8 C 5.9,9.6 5.9,9 6.3,8.8 Z m 7.2,18.5 c 0,0.4 -0.4,0.7 -0.8,0.5 L 4.3,22.9 C 4.1,22.8 4,22.6 4,22.5 v -9.7 c 0,-0.4 0.4,-0.7 0.8,-0.5 l 8.4,4.9 c 0.2,0.1 0.3,0.3 0.3,0.5 z m 12.4,-4.8 c 0,0.2 -0.1,0.4 -0.3,0.5 l -8.4,4.9 c -0.4,0.2 -0.8,-0.1 -0.8,-0.5 v -9.7 c 0,-0.2 0.1,-0.4 0.3,-0.5 l 8.4,-4.9 c 0.4,-0.2 0.8,0.1 0.8,0.5 z"
         id="path11384" /><g
         id="g11408">
	<path
   class="st1"
   d="m 48.2,22.5 v -4.6 c 0,-0.2 -0.1,-0.3 -0.3,-0.3 h -4 c -0.2,0 -0.3,0.1 -0.3,0.3 v 4.6 c 0,0.2 -0.1,0.3 -0.3,0.3 h -2.4 c -0.2,0 -0.3,-0.1 -0.3,-0.3 V 10.7 c 0,-0.2 0.1,-0.3 0.3,-0.3 h 2.4 c 0.2,0 0.3,0.1 0.3,0.3 v 4.1 c 0,0.2 0.1,0.3 0.3,0.3 h 4 c 0.2,0 0.3,-0.1 0.3,-0.3 v -4.1 c 0,-0.2 0.1,-0.3 0.3,-0.3 H 51 c 0.2,0 0.3,0.1 0.3,0.3 v 11.9 c 0,0.2 -0.1,0.3 -0.3,0.3 h -2.4 c -0.2,-0.1 -0.4,-0.2 -0.4,-0.4 z"
   id="path11388" />
	<path
   class="st1"
   d="m 57.9,20.3 -0.7,2.2 c 0,0.1 -0.2,0.2 -0.3,0.2 H 54.3 C 54.1,22.7 54,22.5 54,22.3 l 4,-11.9 c 0,-0.1 0.2,-0.2 0.3,-0.2 H 62 c 0.1,0 0.2,0.1 0.3,0.2 l 4,11.9 c 0.1,0.2 -0.1,0.4 -0.3,0.4 h -2.6 c -0.1,0 -0.2,-0.1 -0.3,-0.2 l -0.7,-2.2 c 0,-0.1 -0.2,-0.2 -0.3,-0.2 H 58 c 0.1,0.1 0,0.2 -0.1,0.2 z m 3.6,-3.5 c -0.5,-1.5 -0.9,-3 -1.3,-4.5 v 0 c -0.4,1.5 -0.8,3 -1.2,4.5 l -0.1,0.5 c -0.1,0.2 0.1,0.4 0.3,0.4 h 2.2 c 0.2,0 0.3,-0.2 0.3,-0.4 z"
   id="path11390" />
	<path
   class="st1"
   d="m 79.2,14.9 h -2.6 c -0.1,0 -0.3,-0.1 -0.3,-0.2 -0.2,-1.2 -1,-1.9 -2.3,-1.9 -1.6,0 -2.7,1.5 -2.7,3.9 0,2.4 1,3.9 2.6,3.9 1.2,0 2.1,-0.7 2.3,-2 0,-0.1 0.1,-0.2 0.3,-0.2 h 2.6 c 0.2,0 0.3,0.2 0.3,0.3 -0.4,2.9 -2.4,4.5 -5.5,4.5 -3.6,0 -5.8,-2.5 -5.8,-6.5 0,-4 2.2,-6.5 5.8,-6.5 3.1,0 5.1,1.7 5.4,4.4 0.2,0.1 0.1,0.3 -0.1,0.3 z"
   id="path11392" />
	<path
   class="st1"
   d="m 93.4,22.8 h -3.1 c -0.1,0 -0.2,0 -0.2,-0.1 L 86.3,17 v 0 5.4 c 0,0.2 -0.1,0.3 -0.3,0.3 h -2.4 c -0.2,0 -0.3,-0.1 -0.3,-0.3 V 10.7 c 0,-0.2 0.1,-0.3 0.3,-0.3 H 86 c 0.2,0 0.3,0.1 0.3,0.3 v 5.1 0 l 3.6,-5.2 C 90,10.5 90,10.5 90.1,10.5 H 93 c 0.2,0 0.4,0.3 0.2,0.5 l -4,5.2 c -0.1,0.1 -0.1,0.2 0,0.4 l 4.4,5.9 c 0.1,0 0,0.3 -0.2,0.3 z"
   id="path11394" />
	<path
   class="st1"
   d="m 101.8,12.1 v 10.4 c 0,0.2 -0.1,0.3 -0.3,0.3 h -1 c -0.2,0 -0.3,-0.1 -0.3,-0.3 V 12.1 c 0,-0.2 -0.1,-0.3 -0.3,-0.3 h -3.7 c -0.2,0 -0.3,-0.1 -0.3,-0.3 v -0.9 c 0,-0.2 0.1,-0.3 0.3,-0.3 h 9.5 c 0.2,0 0.3,0.1 0.3,0.3 v 0.9 c 0,0.2 -0.1,0.3 -0.3,0.3 H 102 c -0.1,0 -0.2,0.1 -0.2,0.3 z"
   id="path11396" />
	<path
   class="st1"
   d="m 117.3,22.5 v -5.2 c 0,-0.2 -0.1,-0.3 -0.3,-0.3 h -5.8 c -0.2,0 -0.3,0.1 -0.3,0.3 v 5.2 c 0,0.2 -0.1,0.3 -0.3,0.3 h -1 c -0.2,0 -0.3,-0.1 -0.3,-0.3 V 10.7 c 0,-0.2 0.1,-0.3 0.3,-0.3 h 1 c 0.2,0 0.3,0.1 0.3,0.3 v 4.7 c 0,0.2 0.1,0.3 0.3,0.3 h 5.8 c 0.2,0 0.3,-0.1 0.3,-0.3 v -4.7 c 0,-0.2 0.1,-0.3 0.3,-0.3 h 1 c 0.2,0 0.3,0.1 0.3,0.3 v 11.9 c 0,0.2 -0.1,0.3 -0.3,0.3 h -1 c -0.2,-0.1 -0.3,-0.2 -0.3,-0.4 z"
   id="path11398" />
	<path
   class="st1"
   d="m 125.5,12.1 v 3.3 c 0,0.2 0.1,0.3 0.3,0.3 h 5.5 c 0.2,0 0.3,0.1 0.3,0.3 v 0.8 c 0,0.2 -0.1,0.3 -0.3,0.3 h -5.5 c -0.2,0 -0.3,0.1 -0.3,0.3 V 21 c 0,0.2 0.1,0.3 0.3,0.3 h 6 c 0.2,0 0.3,0.1 0.3,0.3 v 0.9 c 0,0.2 -0.1,0.3 -0.3,0.3 h -7.6 c -0.2,0 -0.3,-0.1 -0.3,-0.3 V 10.7 c 0,-0.2 0.1,-0.3 0.3,-0.3 h 7.4 c 0.2,0 0.3,0.1 0.3,0.3 v 0.9 c 0,0.2 -0.1,0.3 -0.3,0.3 h -5.8 c -0.1,-0.1 -0.3,0 -0.3,0.2 z"
   id="path11400" />
	<path
   class="st1"
   d="m 141,10.4 c 3.1,0 4.5,1.3 4.5,3.2 0,1.5 -0.7,2.3 -2.1,2.8 v 0 c 1.6,0.4 2.4,1.3 2.4,2.9 0,2.1 -1.7,3.5 -4.5,3.5 h -4.9 c -0.2,0 -0.3,-0.1 -0.3,-0.3 V 10.7 c 0,-0.2 0.1,-0.3 0.3,-0.3 z m -1.9,4.7 c 0,0.2 0.1,0.3 0.3,0.3 h 1.3 c 1.3,0 1.9,-0.4 1.9,-1.4 0,-1 -0.6,-1.3 -1.8,-1.3 h -1.4 c -0.2,0 -0.3,0.1 -0.3,0.3 z m 0,5.1 c 0,0.2 0.1,0.3 0.3,0.3 h 1.4 c 1.4,0 2,-0.4 2,-1.4 0,-1 -0.6,-1.5 -2,-1.5 h -1.3 c -0.2,0 -0.3,0.1 -0.3,0.3 z"
   id="path11402" />
	<path
   class="st1"
   d="m 160.8,16.5 c 0,4 -2.3,6.5 -6,6.5 -3.7,0 -6,-2.5 -6,-6.5 0,-4 2.3,-6.5 6,-6.5 3.6,0.1 6,2.6 6,6.5 z m -8.9,0 c 0,2.4 1,3.9 2.9,3.9 1.8,0 2.8,-1.4 2.8,-3.9 0,-2.5 -1,-3.9 -2.8,-3.9 -1.9,0.1 -2.9,1.6 -2.9,3.9 z"
   id="path11404" />
	<path
   class="st1"
   d="m 173.4,22.8 h -2.9 c -0.1,0 -0.2,-0.1 -0.3,-0.2 L 168,18.5 v 0 l -2.2,4.1 c -0.1,0.1 -0.1,0.2 -0.3,0.2 h -2.9 c -0.2,0 -0.4,-0.2 -0.2,-0.4 l 3.5,-5.8 c 0.1,-0.1 0.1,-0.2 0,-0.3 l -3.3,-5.5 c -0.1,-0.2 0,-0.4 0.2,-0.4 h 2.8 c 0.1,0 0.2,0.1 0.3,0.2 l 2,4 v 0 l 2,-4 c 0,-0.1 0.2,-0.2 0.3,-0.2 h 2.8 c 0.2,0 0.4,0.2 0.2,0.4 l -3.3,5.5 c -0.1,0.1 -0.1,0.2 0,0.3 l 3.5,5.8 c 0.4,0.1 0.3,0.4 0,0.4 z"
   id="path11406" />
</g></g></g><style
     type="text/css"
     id="style11382">
	.st0{fill:#9FEF00;}
	.st1{fill:#FFFFFF;}
</style></svg>
